<?xml version="1.0" standalone="no"?>
<!DOCTYPE svg PUBLIC "-//W3C//DTD SVG 20010904//EN"
 "http://www.w3.org/TR/2001/REC-SVG-20010904/DTD/svg10.dtd">
<svg version="1.0" xmlns="http://www.w3.org/2000/svg"
 width="220.000000pt" height="220.000000pt" viewBox="0 0 220.000000 220.000000"
 preserveAspectRatio="xMidYMid meet">
<metadata>
Created by potrace 1.14, written by Peter Selinger 2001-2017
</metadata>
<g transform="translate(0.000000,220.000000) scale(0.100000,-0.100000)"
fill="#000000" stroke="none">
<path d="M772 2134 c-69 -23 -222 -109 -222 -125 0 -5 -4 -9 -10 -9 -5 0 -40
-14 -77 -32 -78 -37 -165 -120 -203 -194 -14 -26 -46 -70 -72 -96 -26 -26 -62
-78 -80 -115 -29 -60 -33 -79 -35 -160 -2 -75 2 -105 22 -163 l24 -71 -34 -71
c-19 -38 -40 -97 -46 -130 -13 -65 -7 -167 12 -213 7 -17 13 -32 14 -35 5 -22
43 -80 76 -115 26 -28 45 -63 59 -108 24 -77 89 -169 152 -213 44 -31 130 -74
148 -74 5 0 10 -5 10 -11 0 -5 4 -7 10 -4 5 3 7 0 4 -8 -3 -10 4 -17 20 -21
14 -3 26 -10 26 -15 0 -5 12 -16 26 -26 18 -12 24 -13 19 -4 -3 8 0 6 9 -5 8
-10 19 -15 24 -12 6 3 12 0 15 -8 4 -9 14 -12 26 -9 13 3 21 1 21 -7 0 -10 3
-10 15 0 8 7 15 8 15 3 0 -13 53 -11 62 2 5 6 8 5 8 -2 0 -7 5 -13 11 -13 5 0
8 4 5 8 -3 5 1 9 9 9 8 0 15 -3 15 -7 0 -8 67 -5 98 5 12 4 22 15 22 25 0 14
16 10 98 -30 53 -26 109 -50 123 -53 146 -35 288 0 397 98 29 26 65 48 92 55
100 26 207 113 258 208 17 31 51 78 76 105 115 119 149 279 94 448 l-22 68 28
52 c99 181 77 370 -59 519 -18 19 -40 60 -49 90 -35 110 -103 194 -204 251
-31 18 -78 53 -104 79 -120 118 -276 148 -459 88 -89 -29 -98 -30 -113 -15 -9
8 -16 20 -16 25 0 5 -10 14 -22 20 -90 43 -212 49 -316 16z m-204 -608 c13
-29 41 -72 63 -95 78 -81 150 -100 374 -100 151 0 193 -7 229 -39 32 -29 76
-132 56 -132 -5 0 -12 10 -15 23 -4 12 -17 33 -29 45 -44 49 -66 54 -273 57
l-194 3 -64 31 c-39 19 -76 47 -95 71 -29 37 -90 158 -90 180 0 25 17 5 38
-44z m1019 -508 c-3 -7 -5 -2 -5 12 0 14 2 19 5 13 2 -7 2 -19 0 -25z m-12
-70 c-6 -34 -24 -81 -52 -133 -50 -92 -137 -165 -241 -200 -62 -21 -85 -23
-303 -24 -256 -2 -249 -3 -249 52 0 18 2 19 10 7 8 -13 44 -15 232 -14 236 1
289 9 383 56 67 35 147 125 185 211 19 42 36 77 38 77 1 0 0 -15 -3 -32z"/>
</g>
</svg>
